spoonbender-grotesk-regular-arabic.ufo
<glyph name="A" format="2">
	<unicode hex="0041"/>
	<advance width="712"/>
	<outline>
		<contour>
			<point x="32" y="0" type="line"/>
			<point x="84" y="0" type="line"/>
			<point x="100" y="16" type="line"/>
			<point x="180" y="224" type="line"/>
			<point x="188" y="232" type="line"/>
			<point x="524" y="232" type="line"/>
			<point x="532" y="224" type="line"/>
			<point x="612" y="16" type="line"/>
			<point x="628" y="0" type="line"/>
			<point x="680" y="0" type="line"/>
			<point x="696" y="16" type="line"/>
			<point x="696" y="80" type="line"/>
			<point x="432" y="752" type="line"/>
			<point x="416" y="768" type="line"/>
			<point x="296" y="768" type="line"/>
			<point x="280" y="752" type="line"/>
			<point x="16" y="80" type="line"/>
			<point x="16" y="16" type="line"/>
		</contour>
		<contour>
			<point x="236" y="320" type="line"/>
			<point x="228" y="328" type="line"/>
			<point x="352" y="672" type="line"/>
			<point x="360" y="672" type="line"/>
			<point x="484" y="328" type="line"/>
			<point x="476" y="320" type="line"/>
		</contour>
	</outline>
</glyph>
<glyph name="B" format="2">
	<unicode hex="0042"/>
	<advance width="696"/>
	<outline>
		<contour>
			<point x="80" y="0" type="line"/>
			<point x="392" y="0" type="line" smooth="yes"/>
			<point x="552" y="0"/>
			<point x="664" y="56"/>
			<point x="664" y="220" type="curve" smooth="yes"/>
			<point x="664" y="336"/>
			<point x="592" y="384"/>
			<point x="504" y="400" type="curve"/>
			<point x="504" y="408" type="line"/>
			<point x="568" y="424"/>
			<point x="624" y="480"/>
			<point x="624" y="560" type="curve" smooth="yes"/>
			<point x="624" y="720"/>
			<point x="528" y="768"/>
			<point x="368" y="768" type="curve" smooth="yes"/>
			<point x="80" y="768" type="line"/>
			<point x="64" y="752" type="line"/>
			<point x="64" y="16" type="line"/>
		</contour>
		<contour>
			<point x="176" y="440" type="line"/>
			<point x="168" y="448" type="line"/>
			<point x="168" y="672" type="line"/>
			<point x="176" y="680" type="line"/>
			<point x="352" y="680" type="line" smooth="yes"/>
			<point x="456" y="680"/>
			<point x="520" y="664"/>
			<point x="520" y="560" type="curve" smooth="yes"/>
			<point x="520" y="456"/>
			<point x="456" y="440"/>
			<point x="352" y="440" type="curve" smooth="yes"/>
		</contour>
		<contour>
			<point x="176" y="88" type="line"/>
			<point x="168" y="96" type="line"/>
			<point x="168" y="344" type="line"/>
			<point x="176" y="352" type="line"/>
			<point x="376" y="352" type="line" smooth="yes"/>
			<point x="480" y="352"/>
			<point x="560" y="324"/>
			<point x="560" y="220" type="curve" smooth="yes"/>
			<point x="560" y="116"/>
			<point x="480" y="88"/>
			<point x="376" y="88" type="curve" smooth="yes"/>
		</contour>
	</outline>
</glyph>
<glyph name="C" format="2">
	<unicode hex="0043"/>
	<advance width="760"/>
	<outline>
		<contour>
			<point x="408" y="-16" type="curve" smooth="yes"/>
			<point x="624" y="-16"/>
			<point x="704" y="136"/>
			<point x="728" y="248" type="curve"/>
			<point x="728" y="272" type="line"/>
			<point x="712" y="288" type="line"/>
			<point x="640" y="288" type="line"/>
			<point x="624" y="272" type="line"/>
			<point x="608" y="200"/>
			<point x="556" y="80"/>
			<point x="408" y="80" type="curve" smooth="yes"/>
			<point x="232" y="80"/>
			<point x="140" y="208"/>
			<point x="140" y="384" type="curve" smooth="yes"/>
			<point x="140" y="560"/>
			<point x="224" y="688"/>
			<point x="408" y="688" type="curve" smooth="yes"/>
			<point x="536" y="688"/>
			<point x="608" y="624"/>
			<point x="624" y="552" type="curve"/>
			<point x="640" y="536" type="line"/>
			<point x="712" y="536" type="line"/>
			<point x="728" y="552" type="line"/>
			<point x="728" y="576" type="line"/>
			<point x="704" y="688"/>
			<point x="600" y="784"/>
			<point x="408" y="784" type="curve" smooth="yes"/>
			<point x="176" y="784"/>
			<point x="32" y="624"/>
			<point x="32" y="384" type="curve" smooth="yes"/>
			<point x="32" y="144"/>
			<point x="176" y="-16"/>
		</contour>
	</outline>
</glyph>
<glyph name="D" format="2">
  <advance width="768"/>
  <unicode hex="0044"/>
  <outline>
    <contour>
      <point x="80" y="0" type="line"/>
      <point x="356" y="0" type="line" smooth="yes"/>
      <point x="596" y="0"/>
      <point x="720" y="144"/>
      <point x="720" y="384" type="curve" smooth="yes"/>
      <point x="720" y="624"/>
      <point x="592" y="768"/>
      <point x="352" y="768" type="curve" smooth="yes"/>
      <point x="80" y="768" type="line"/>
      <point x="64" y="752" type="line"/>
      <point x="64" y="16" type="line"/>
    </contour>
    <contour>
      <point x="208" y="96" type="line"/>
      <point x="192" y="112" type="line"/>
      <point x="192" y="656" type="line"/>
      <point x="208" y="672" type="line"/>
      <point x="336" y="672" type="line" smooth="yes"/>
      <point x="532" y="672"/>
      <point x="592" y="580"/>
      <point x="592" y="384" type="curve" smooth="yes"/>
      <point x="592" y="192"/>
      <point x="524" y="96"/>
      <point x="328" y="96" type="curve" smooth="yes"/>
    </contour>
  </outline>
</glyph>
<glyph name="E" format="2">
  <advance width="592"/>
  <unicode hex="0045"/>
  <outline>
    <contour>
      <point x="48" y="0" type="line"/>
      <point x="560" y="0" type="line"/>
      <point x="576" y="16" type="line"/>
      <point x="576" y="80" type="line"/>
      <point x="560" y="96" type="line"/>
      <point x="160" y="96" type="line"/>
      <point x="144" y="112" type="line"/>
      <point x="144" y="336" type="line"/>
      <point x="160" y="352" type="line"/>
      <point x="536" y="352" type="line"/>
      <point x="552" y="368" type="line"/>
      <point x="552" y="432" type="line"/>
      <point x="536" y="448" type="line"/>
      <point x="160" y="448" type="line"/>
      <point x="144" y="464" type="line"/>
      <point x="144" y="656" type="line"/>
      <point x="160" y="672" type="line"/>
      <point x="560" y="672" type="line"/>
      <point x="576" y="688" type="line"/>
      <point x="576" y="752" type="line"/>
      <point x="560" y="768" type="line"/>
      <point x="48" y="768" type="line"/>
      <point x="32" y="752" type="line"/>
      <point x="32" y="16" type="line"/>
    </contour>
  </outline>
</glyph>
<glyph name="F" format="2">
	<unicode hex="0046"/>
	<advance width="528"/>
	<outline>
		<contour>
			<point x="80" y="0" type="line"/>
			<point x="152" y="0" type="line"/>
			<point x="168" y="16" type="line"/>
			<point x="168" y="344" type="line"/>
			<point x="176" y="352" type="line"/>
			<point x="496" y="352" type="line"/>
			<point x="512" y="368" type="line"/>
			<point x="512" y="432" type="line"/>
			<point x="496" y="448" type="line"/>
			<point x="176" y="448" type="line"/>
			<point x="168" y="456" type="line"/>
			<point x="168" y="664" type="line"/>
			<point x="176" y="672" type="line"/>
			<point x="560" y="672" type="line"/>
			<point x="576" y="688" type="line"/>
			<point x="576" y="752" type="line"/>
			<point x="560" y="768" type="line"/>
			<point x="80" y="768" type="line"/>
			<point x="64" y="752" type="line"/>
			<point x="64" y="16" type="line"/>
		</contour>
	</outline>
</glyph>
<glyph name="G" format="2">
	<unicode hex="0047"/>
	<advance width="824"/>
	<outline>
		<contour>
			<point x="408" y="-16" type="curve" smooth="yes"/>
			<point x="504" y="-16"/>
			<point x="600" y="24"/>
			<point x="664" y="120" type="curve"/>
			<point x="672" y="120" type="line"/>
			<point x="672" y="16" type="line"/>
			<point x="688" y="0" type="line"/>
			<point x="752" y="0" type="line"/>
			<point x="768" y="16" type="line"/>
			<point x="768" y="400" type="line"/>
			<point x="752" y="416" type="line"/>
			<point x="424" y="416" type="line"/>
			<point x="408" y="400" type="line"/>
			<point x="408" y="336" type="line"/>
			<point x="424" y="320" type="line"/>
			<point x="664" y="320" type="line"/>
			<point x="672" y="312" type="line"/>
			<point x="672" y="296" type="line" smooth="yes"/>
			<point x="672" y="192"/>
			<point x="576" y="80"/>
			<point x="408" y="80" type="curve" smooth="yes"/>
			<point x="232" y="80"/>
			<point x="140" y="200"/>
			<point x="140" y="384" type="curve" smooth="yes"/>
			<point x="140" y="560"/>
			<point x="224" y="688"/>
			<point x="408" y="688" type="curve" smooth="yes"/>
			<point x="568" y="688"/>
			<point x="616" y="624"/>
			<point x="648" y="576" type="curve"/>
			<point x="664" y="560" type="line"/>
			<point x="736" y="560" type="line"/>
			<point x="752" y="576" type="line"/>
			<point x="752" y="592" type="line" smooth="yes"/>
			<point x="720" y="680"/>
			<point x="632" y="784"/>
			<point x="408" y="784" type="curve" smooth="yes"/>
			<point x="176" y="784"/>
			<point x="32" y="624"/>
			<point x="32" y="384" type="curve" smooth="yes"/>
			<point x="32" y="144"/>
			<point x="176" y="-16"/>
		</contour>
	</outline>
</glyph>
<glyph name="H" format="2">
	<unicode hex="0048"/>
	<advance width="752"/>
	<outline>
		<contour>
			<point x="80" y="0" type="line"/>
			<point x="160" y="0" type="line"/>
			<point x="176" y="16" type="line"/>
			<point x="176" y="344" type="line"/>
			<point x="184" y="352" type="line"/>
			<point x="568" y="352" type="line"/>
			<point x="576" y="344" type="line"/>
			<point x="576" y="16" type="line"/>
			<point x="592" y="0" type="line"/>
			<point x="672" y="0" type="line"/>
			<point x="688" y="16" type="line"/>
			<point x="688" y="752" type="line"/>
			<point x="672" y="768" type="line"/>
			<point x="592" y="768" type="line"/>
			<point x="576" y="752" type="line"/>
			<point x="576" y="456" type="line"/>
			<point x="568" y="448" type="line"/>
			<point x="184" y="448" type="line"/>
			<point x="176" y="456" type="line"/>
			<point x="176" y="752" type="line"/>
			<point x="160" y="768" type="line"/>
			<point x="80" y="768" type="line"/>
			<point x="64" y="752" type="line"/>
			<point x="64" y="16" type="line"/>
		</contour>
	</outline>
</glyph>
<glyph name="I" format="2">
	<unicode hex="0049"/>
	<advance width="232"/>
	<outline>
		<contour>
			<point x="80" y="0" type="line"/>
			<point x="152" y="0" type="line"/>
			<point x="168" y="16" type="line"/>
			<point x="168" y="752" type="line"/>
			<point x="152" y="768" type="line"/>
			<point x="80" y="768" type="line"/>
			<point x="64" y="752" type="line"/>
			<point x="64" y="16" type="line"/>
		</contour>
	</outline>
</glyph>
<glyph name="J" format="2">
	<unicode hex="004A"/>
	<advance width="536"/>
	<outline>
		<contour>
			<point x="248" y="-16" type="curve" smooth="yes"/>
			<point x="408" y="-16"/>
			<point x="480" y="80"/>
			<point x="480" y="240" type="curve" smooth="yes"/>
			<point x="480" y="752" type="line"/>
			<point x="464" y="768" type="line"/>
			<point x="392" y="768" type="line"/>
			<point x="376" y="752" type="line"/>
			<point x="376" y="256" type="line" smooth="yes"/>
			<point x="376" y="152"/>
			<point x="352" y="80"/>
			<point x="248" y="80" type="curve" smooth="yes"/>
			<point x="144" y="80"/>
			<point x="120" y="152"/>
			<point x="120" y="256" type="curve" smooth="yes"/>
			<point x="120" y="276" type="line"/>
			<point x="104" y="292" type="line"/>
			<point x="32" y="292" type="line"/>
			<point x="16" y="276" type="line"/>
			<point x="16" y="240" type="line" smooth="yes"/>
			<point x="16" y="80"/>
			<point x="88" y="-16"/>
		</contour>
	</outline>
</glyph>
<glyph name="K" format="2">
	<unicode hex="004B"/>
	<advance width="656"/>
	<outline>
		<contour>
			<point x="80" y="0" type="line"/>
			<point x="152" y="0" type="line"/>
			<point x="168" y="16" type="line"/>
			<point x="168" y="240" type="line"/>
			<point x="176" y="256" type="line"/>
			<point x="288" y="360" type="line"/>
			<point x="296" y="360" type="line"/>
			<point x="568" y="8" type="line"/>
			<point x="584" y="0" type="line"/>
			<point x="624" y="0" type="line"/>
			<point x="640" y="16" type="line"/>
			<point x="640" y="80" type="line"/>
			<point x="632" y="96" type="line"/>
			<point x="376" y="428" type="line"/>
			<point x="376" y="436" type="line"/>
			<point x="632" y="680" type="line"/>
			<point x="640" y="696" type="line"/>
			<point x="640" y="752" type="line"/>
			<point x="624" y="768" type="line"/>
			<point x="584" y="768" type="line"/>
			<point x="568" y="760" type="line"/>
			<point x="176" y="384" type="line"/>
			<point x="168" y="384" type="line"/>
			<point x="168" y="752" type="line"/>
			<point x="152" y="768" type="line"/>
			<point x="80" y="768" type="line"/>
			<point x="64" y="752" type="line"/>
			<point x="64" y="16" type="line"/>
		</contour>
	</outline>
</glyph>
<glyph name="L" format="2">
  <advance width="644"/>
  <unicode hex="004C"/>
  <anchor x="328" y="0" name="bottom"/>
  <anchor x="152" y="800" name="top"/>
  <outline>
    <contour>
      <point x="112" y="0" type="line"/>
      <point x="596" y="0" type="line"/>
      <point x="612" y="16" type="line"/>
      <point x="612" y="80" type="line"/>
      <point x="596" y="96" type="line"/>
      <point x="224" y="96" type="line"/>
      <point x="208" y="112" type="line"/>
      <point x="208" y="784" type="line"/>
      <point x="192" y="800" type="line"/>
      <point x="112" y="800" type="line"/>
      <point x="96" y="784" type="line"/>
      <point x="96" y="16" type="line"/>
    </contour>
  </outline>
</glyph>
<glyph name="M" format="2">
	<unicode hex="004D"/>
	<advance width="896"/>
	<outline>
		<contour>
			<point x="80" y="0" type="line"/>
			<point x="152" y="0" type="line"/>
			<point x="168" y="16" type="line"/>
			<point x="168" y="448" type="line"/>
			<point x="160" y="640" type="line"/>
			<point x="168" y="640" type="line"/>
			<point x="384" y="16" type="line"/>
			<point x="400" y="0" type="line"/>
			<point x="496" y="0" type="line"/>
			<point x="512" y="16" type="line"/>
			<point x="728" y="640" type="line"/>
			<point x="736" y="640" type="line"/>
			<point x="728" y="448" type="line"/>
			<point x="728" y="16" type="line"/>
			<point x="744" y="0" type="line"/>
			<point x="816" y="0" type="line"/>
			<point x="832" y="16" type="line"/>
			<point x="832" y="752" type="line"/>
			<point x="816" y="768" type="line"/>
			<point x="680" y="768" type="line"/>
			<point x="664" y="752" type="line"/>
			<point x="452" y="120" type="line"/>
			<point x="444" y="120" type="line"/>
			<point x="232" y="752" type="line"/>
			<point x="216" y="768" type="line"/>
			<point x="80" y="768" type="line"/>
			<point x="64" y="752" type="line"/>
			<point x="64" y="16" type="line"/>
		</contour>
	</outline>
</glyph>
<glyph name="N" format="2">
	<unicode hex="004E"/>
	<advance width="736"/>
	<outline>
		<contour>
			<point x="80" y="0" type="line"/>
			<point x="152" y="0" type="line"/>
			<point x="168" y="16" type="line"/>
			<point x="168" y="640" type="line"/>
			<point x="176" y="640" type="line"/>
			<point x="512" y="16" type="line"/>
			<point x="528" y="0" type="line"/>
			<point x="656" y="0" type="line"/>
			<point x="672" y="16" type="line"/>
			<point x="672" y="752" type="line"/>
			<point x="656" y="768" type="line"/>
			<point x="584" y="768" type="line"/>
			<point x="568" y="752" type="line"/>
			<point x="568" y="128" type="line"/>
			<point x="560" y="128" type="line"/>
			<point x="224" y="752" type="line"/>
			<point x="208" y="768" type="line"/>
			<point x="80" y="768" type="line"/>
			<point x="64" y="752" type="line"/>
			<point x="64" y="16" type="line"/>
		</contour>
	</outline>
</glyph>
<glyph name="O" format="2">
	<unicode hex="004F"/>
	<advance width="896"/>
	<outline>
		<contour>
			<point x="448" y="-16" type="curve" smooth="yes"/>
			<point x="696" y="-16"/>
			<point x="824" y="152"/>
			<point x="824" y="400" type="curve" smooth="yes"/>
			<point x="824" y="648"/>
			<point x="696" y="816"/>
			<point x="448" y="816" type="curve" smooth="yes"/>
			<point x="200" y="816"/>
			<point x="72" y="648"/>
			<point x="72" y="400" type="curve" smooth="yes"/>
			<point x="72" y="152"/>
			<point x="200" y="-16"/>
		</contour>
		<contour>
			<point x="448" y="84" type="curve" smooth="yes"/>
			<point x="264" y="84"/>
			<point x="188" y="216"/>
			<point x="188" y="400" type="curve" smooth="yes"/>
			<point x="188" y="584"/>
			<point x="264" y="716"/>
			<point x="448" y="716" type="curve" smooth="yes"/>
			<point x="632" y="716"/>
			<point x="708" y="584"/>
			<point x="708" y="400" type="curve" smooth="yes"/>
			<point x="708" y="216"/>
			<point x="632" y="84"/>
		</contour>
	</outline>
	<anchor name="bottom" x="448" y="0"/>
	<anchor name="top" x="448" y="800"/>
</glyph>
<glyph name="P" format="2">
	<unicode hex="0050"/>
	<advance width="600"/>
	<outline>
		<contour>
			<point x="176" y="424" type="line"/>
			<point x="168" y="432" type="line"/>
			<point x="168" y="672" type="line"/>
			<point x="176" y="680" type="line"/>
			<point x="312" y="680" type="line" smooth="yes"/>
			<point x="416" y="680"/>
			<point x="480" y="656"/>
			<point x="480" y="552" type="curve" smooth="yes"/>
			<point x="480" y="448"/>
			<point x="416" y="424"/>
			<point x="312" y="424" type="curve" smooth="yes"/>
		</contour>
		<contour>
			<point x="80" y="0" type="line"/>
			<point x="152" y="0" type="line"/>
			<point x="168" y="16" type="line"/>
			<point x="168" y="328" type="line"/>
			<point x="176" y="336" type="line"/>
			<point x="328" y="336" type="line" smooth="yes"/>
			<point x="488" y="336"/>
			<point x="584" y="392"/>
			<point x="584" y="552" type="curve" smooth="yes"/>
			<point x="584" y="712"/>
			<point x="488" y="768"/>
			<point x="328" y="768" type="curve" smooth="yes"/>
			<point x="80" y="768" type="line"/>
			<point x="64" y="752" type="line"/>
			<point x="64" y="16" type="line"/>
		</contour>
	</outline>
</glyph>
<glyph name="Q" format="2">
  <advance width="832"/>
  <unicode hex="0051"/>
  <outline>
    <contour>
      <point x="416" y="-16" type="curve" smooth="yes"/>
      <point x="496" y="-16"/>
      <point x="568" y="0"/>
      <point x="624" y="36" type="curve"/>
      <point x="640" y="36" type="line"/>
      <point x="662" y="11" type="line"/>
      <point x="672" y="0" type="line"/>
      <point x="732" y="0" type="line"/>
      <point x="748" y="16" type="line"/>
      <point x="748" y="55" type="line"/>
      <point x="748" y="72" type="line"/>
      <point x="716" y="108" type="line"/>
      <point x="716" y="124" type="line"/>
      <point x="760" y="184"/>
      <point x="792" y="276"/>
      <point x="792" y="400" type="curve" smooth="yes"/>
      <point x="792" y="648"/>
      <point x="664" y="816"/>
      <point x="416" y="816" type="curve" smooth="yes"/>
      <point x="168" y="816"/>
      <point x="40" y="648"/>
      <point x="40" y="400" type="curve" smooth="yes"/>
      <point x="40" y="152"/>
      <point x="168" y="-16"/>
    </contour>
    <contour>
      <point x="416" y="84" type="curve" smooth="yes"/>
      <point x="232" y="84"/>
      <point x="156" y="216"/>
      <point x="156" y="400" type="curve" smooth="yes"/>
      <point x="156" y="584"/>
      <point x="232" y="716"/>
      <point x="416" y="716" type="curve" smooth="yes"/>
      <point x="600" y="716"/>
      <point x="676" y="584"/>
      <point x="676" y="400" type="curve" smooth="yes"/>
      <point x="676" y="320"/>
      <point x="664" y="260"/>
      <point x="640" y="212" type="curve"/>
      <point x="624" y="212" type="line"/>
      <point x="483" y="375" type="line"/>
      <point x="476" y="384" type="line"/>
      <point x="432" y="384" type="line"/>
      <point x="416" y="368" type="line"/>
      <point x="416" y="304" type="line"/>
      <point x="424" y="280" type="line"/>
      <point x="552" y="136" type="line"/>
      <point x="552" y="120" type="line"/>
      <point x="520" y="96"/>
      <point x="476" y="84"/>
    </contour>
  </outline>
</glyph>
<glyph name="R" format="2">
	<unicode hex="0052"/>
	<advance width="632"/>
	<outline>
		<contour>
			<point x="176" y="424" type="line"/>
			<point x="168" y="432" type="line"/>
			<point x="168" y="672" type="line"/>
			<point x="176" y="680" type="line"/>
			<point x="312" y="680" type="line" smooth="yes"/>
			<point x="416" y="680"/>
			<point x="480" y="656"/>
			<point x="480" y="552" type="curve" smooth="yes"/>
			<point x="480" y="448"/>
			<point x="408" y="424"/>
			<point x="304" y="424" type="curve" smooth="yes"/>
		</contour>
		<contour>
			<point x="80" y="0" type="line"/>
			<point x="152" y="0" type="line"/>
			<point x="168" y="16" type="line"/>
			<point x="168" y="328" type="line"/>
			<point x="176" y="336" type="line"/>
			<point x="328" y="336" type="line" smooth="yes"/>
			<point x="440" y="336"/>
			<point x="480" y="304"/>
			<point x="480" y="192" type="curve" smooth="yes"/>
			<point x="480" y="16" type="line"/>
			<point x="496" y="0" type="line"/>
			<point x="568" y="0" type="line"/>
			<point x="584" y="16" type="line"/>
			<point x="584" y="224" type="line" smooth="yes"/>
			<point x="584" y="312"/>
			<point x="528" y="368"/>
			<point x="456" y="376" type="curve"/>
			<point x="456" y="384" type="line"/>
			<point x="512" y="400"/>
			<point x="584" y="456"/>
			<point x="584" y="552" type="curve" smooth="yes"/>
			<point x="584" y="712"/>
			<point x="488" y="768"/>
			<point x="328" y="768" type="curve" smooth="yes"/>
			<point x="80" y="768" type="line"/>
			<point x="64" y="752" type="line"/>
			<point x="64" y="16" type="line"/>
		</contour>
	</outline>
</glyph>
<glyph name="S" format="2">
	<unicode hex="0053"/>
	<advance width="536"/>
	<outline>
		<contour>
			<point x="264" y="-16" type="curve" smooth="yes"/>
			<point x="420" y="-16"/>
			<point x="504" y="84"/>
			<point x="504" y="192" type="curve" smooth="yes"/>
			<point x="504" y="284"/>
			<point x="447" y="369"/>
			<point x="333" y="404" type="curve" smooth="yes"/>
			<point x="201" y="445"/>
			<point x="136" y="478"/>
			<point x="136" y="560" type="curve" smooth="yes"/>
			<point x="136" y="608"/>
			<point x="168" y="696"/>
			<point x="248" y="696" type="curve" smooth="yes"/>
			<point x="332" y="696"/>
			<point x="396" y="592"/>
			<point x="396" y="540" type="curve"/>
			<point x="412" y="524" type="line"/>
			<point x="480" y="524" type="line"/>
			<point x="496" y="540" type="line"/>
			<point x="494" y="562" type="line"/>
			<point x="482" y="666"/>
			<point x="372" y="784"/>
			<point x="248" y="784" type="curve" smooth="yes"/>
			<point x="92" y="784"/>
			<point x="32" y="640"/>
			<point x="32" y="560" type="curve" smooth="yes"/>
			<point x="32" y="432"/>
			<point x="159" y="379"/>
			<point x="268" y="343" type="curve" smooth="yes"/>
			<point x="380" y="306"/>
			<point x="400" y="240"/>
			<point x="400" y="192" type="curve" smooth="yes"/>
			<point x="400" y="148"/>
			<point x="360" y="72"/>
			<point x="264" y="72" type="curve" smooth="yes"/>
			<point x="200" y="72"/>
			<point x="132" y="124"/>
			<point x="132" y="204" type="curve"/>
			<point x="116" y="220" type="line"/>
			<point x="48" y="220" type="line"/>
			<point x="32" y="204" type="line"/>
			<point x="32" y="184" type="line"/>
			<point x="40" y="70"/>
			<point x="124" y="-16"/>
		</contour>
	</outline>
</glyph>
<glyph name="T" format="2">
	<unicode hex="0054"/>
	<advance width="584"/>
	<outline>
		<contour>
			<point x="256" y="0" type="line"/>
			<point x="328" y="0" type="line"/>
			<point x="344" y="16" type="line"/>
			<point x="344" y="672" type="line"/>
			<point x="352" y="680" type="line"/>
			<point x="552" y="680" type="line"/>
			<point x="568" y="696" type="line"/>
			<point x="568" y="752" type="line"/>
			<point x="552" y="768" type="line"/>
			<point x="32" y="768" type="line"/>
			<point x="16" y="752" type="line"/>
			<point x="16" y="696" type="line"/>
			<point x="32" y="680" type="line"/>
			<point x="232" y="680" type="line"/>
			<point x="240" y="672" type="line"/>
			<point x="240" y="16" type="line"/>
		</contour>
	</outline>
</glyph>
<glyph name="U" format="2">
	<unicode hex="0055"/>
	<advance width="728"/>
	<outline>
		<contour>
			<point x="364" y="-16" type="curve" smooth="yes"/>
			<point x="564" y="-16"/>
			<point x="672" y="76"/>
			<point x="672" y="276" type="curve" smooth="yes"/>
			<point x="672" y="752" type="line"/>
			<point x="656" y="768" type="line"/>
			<point x="576" y="768" type="line"/>
			<point x="560" y="752" type="line"/>
			<point x="560" y="292" type="line" smooth="yes"/>
			<point x="560" y="152"/>
			<point x="492" y="84"/>
			<point x="364" y="84" type="curve" smooth="yes"/>
			<point x="236" y="84"/>
			<point x="168" y="152"/>
			<point x="168" y="292" type="curve" smooth="yes"/>
			<point x="168" y="752" type="line"/>
			<point x="152" y="768" type="line"/>
			<point x="72" y="768" type="line"/>
			<point x="56" y="752" type="line"/>
			<point x="56" y="276" type="line" smooth="yes"/>
			<point x="56" y="76"/>
			<point x="164" y="-16"/>
		</contour>
	</outline>
</glyph>
<glyph name="V" format="2">
	<unicode hex="0056"/>
	<advance width="704"/>
	<outline>
		<contour>
			<point x="284" y="0" type="line"/>
			<point x="416" y="0" type="line"/>
			<point x="436" y="16" type="line"/>
			<point x="688" y="696" type="line"/>
			<point x="688" y="784" type="line"/>
			<point x="672" y="800" type="line"/>
			<point x="620" y="800" type="line"/>
			<point x="604" y="784" type="line"/>
			<point x="360" y="112" type="line"/>
			<point x="344" y="112" type="line"/>
			<point x="100" y="784" type="line"/>
			<point x="84" y="800" type="line"/>
			<point x="32" y="800" type="line"/>
			<point x="16" y="784" type="line"/>
			<point x="16" y="696" type="line"/>
			<point x="268" y="16" type="line"/>
		</contour>
	</outline>
</glyph>
<glyph name="W" format="2">
  <advance width="1068"/>
  <unicode hex="0057"/>
  <anchor x="520" y="0" name="bottom"/>
  <anchor x="520" y="800" name="top"/>
  <outline>
    <contour>
      <point x="280" y="112" type="line"/>
      <point x="136" y="784" type="line"/>
      <point x="120" y="800" type="line"/>
      <point x="48" y="800" type="line"/>
      <point x="32" y="784" type="line"/>
      <point x="32" y="696" type="line"/>
      <point x="192" y="16" type="line"/>
      <point x="208" y="0" type="line"/>
      <point x="360" y="0" type="line"/>
      <point x="380" y="16" type="line"/>
      <point x="524" y="688" type="line"/>
      <point x="544" y="688" type="line"/>
      <point x="688" y="16" type="line"/>
      <point x="704" y="0" type="line"/>
      <point x="856" y="0" type="line"/>
      <point x="876" y="16" type="line"/>
      <point x="1036" y="696" type="line"/>
      <point x="1036" y="784" type="line"/>
      <point x="1020" y="800" type="line"/>
      <point x="948" y="800" type="line"/>
      <point x="932" y="784" type="line"/>
      <point x="788" y="112" type="line"/>
      <point x="772" y="112" type="line"/>
      <point x="624" y="784" type="line"/>
      <point x="608" y="800" type="line"/>
      <point x="460" y="800" type="line"/>
      <point x="444" y="784" type="line"/>
      <point x="296" y="112" type="line"/>
    </contour>
  </outline>
</glyph>
<glyph name="X" format="2">
  <advance width="648"/>
  <unicode hex="0058"/>
  <outline>
    <contour>
      <point x="32" y="0" type="line"/>
      <point x="72" y="0" type="line"/>
      <point x="96" y="16" type="line"/>
      <point x="316" y="320" type="line"/>
      <point x="332" y="320" type="line"/>
      <point x="552" y="16" type="line"/>
      <point x="576" y="0" type="line"/>
      <point x="616" y="0" type="line"/>
      <point x="632" y="16" type="line"/>
      <point x="632" y="92" type="line"/>
      <point x="400" y="400" type="line"/>
      <point x="400" y="420" type="line"/>
      <point x="624" y="708" type="line"/>
      <point x="624" y="784" type="line"/>
      <point x="608" y="800" type="line"/>
      <point x="564" y="800" type="line"/>
      <point x="540" y="784" type="line"/>
      <point x="332" y="492" type="line"/>
      <point x="316" y="492" type="line"/>
      <point x="104" y="784" type="line"/>
      <point x="80" y="800" type="line"/>
      <point x="40" y="800" type="line"/>
      <point x="24" y="784" type="line"/>
      <point x="24" y="708" type="line"/>
      <point x="248" y="420" type="line"/>
      <point x="248" y="400" type="line"/>
      <point x="16" y="92" type="line"/>
      <point x="16" y="16" type="line"/>
    </contour>
  </outline>
</glyph>
<glyph name="a" format="2">
  <advance width="584"/>
  <unicode hex="0061"/>
  <outline>
    <contour>
      <point x="232" y="-16" type="curve" smooth="yes"/>
      <point x="312" y="-16"/>
      <point x="376" y="8"/>
      <point x="424" y="72" type="curve"/>
      <point x="432" y="72" type="line"/>
      <point x="436" y="36"/>
      <point x="472" y="0"/>
      <point x="508" y="0" type="curve" smooth="yes"/>
      <point x="552" y="0" type="line"/>
      <point x="568" y="16" type="line"/>
      <point x="568" y="64" type="line"/>
      <point x="552" y="80" type="line"/>
      <point x="528" y="80"/>
      <point x="520" y="88"/>
      <point x="520" y="112" type="curve" smooth="yes"/>
      <point x="520" y="376" type="line" smooth="yes"/>
      <point x="520" y="528"/>
      <point x="448" y="592"/>
      <point x="296" y="592" type="curve" smooth="yes"/>
      <point x="216" y="592"/>
      <point x="72" y="552"/>
      <point x="72" y="416" type="curve"/>
      <point x="88" y="400" type="line"/>
      <point x="144" y="400" type="line"/>
      <point x="160" y="416" type="line"/>
      <point x="168" y="480"/>
      <point x="232" y="504"/>
      <point x="296" y="504" type="curve" smooth="yes"/>
      <point x="376" y="504"/>
      <point x="424" y="472"/>
      <point x="424" y="392" type="curve" smooth="yes"/>
      <point x="424" y="352" type="line"/>
      <point x="416" y="344" type="line"/>
      <point x="336" y="344" type="line" smooth="yes"/>
      <point x="168" y="344"/>
      <point x="40" y="304"/>
      <point x="40" y="160" type="curve" smooth="yes"/>
      <point x="40" y="56"/>
      <point x="120" y="-16"/>
    </contour>
    <contour>
      <point x="248" y="72" type="curve" smooth="yes"/>
      <point x="192" y="72"/>
      <point x="136" y="96"/>
      <point x="136" y="160" type="curve" smooth="yes"/>
      <point x="136" y="240"/>
      <point x="200" y="264"/>
      <point x="336" y="264" type="curve" smooth="yes"/>
      <point x="416" y="264" type="line"/>
      <point x="424" y="256" type="line"/>
      <point x="424" y="200" type="line" smooth="yes"/>
      <point x="424" y="104"/>
      <point x="344" y="72"/>
    </contour>
  </outline>
</glyph>
<glyph name="b" format="2">
	<unicode hex="0062"/>
	<advance width="608"/>
	<outline>
		<contour>
			<point x="80" y="0" type="line"/>
			<point x="136" y="0" type="line"/>
			<point x="152" y="16" type="line"/>
			<point x="160" y="64" type="line"/>
			<point x="168" y="64" type="line"/>
			<point x="200" y="20"/>
			<point x="268" y="-16"/>
			<point x="344" y="-16" type="curve" smooth="yes"/>
			<point x="504" y="-16"/>
			<point x="576" y="124"/>
			<point x="576" y="288" type="curve" smooth="yes"/>
			<point x="576" y="452"/>
			<point x="504" y="592"/>
			<point x="344" y="592" type="curve" smooth="yes"/>
			<point x="256" y="592"/>
			<point x="200" y="556"/>
			<point x="168" y="512" type="curve"/>
			<point x="160" y="512" type="line"/>
			<point x="160" y="752" type="line"/>
			<point x="144" y="768" type="line"/>
			<point x="80" y="768" type="line"/>
			<point x="64" y="752" type="line"/>
			<point x="64" y="16" type="line"/>
		</contour>
		<contour>
			<point x="312" y="504" type="curve" smooth="yes"/>
			<point x="416" y="504"/>
			<point x="472" y="416"/>
			<point x="472" y="288" type="curve" smooth="yes"/>
			<point x="472" y="160"/>
			<point x="416" y="72"/>
			<point x="312" y="72" type="curve" smooth="yes"/>
			<point x="208" y="72"/>
			<point x="152" y="160"/>
			<point x="152" y="288" type="curve" smooth="yes"/>
			<point x="152" y="416"/>
			<point x="208" y="504"/>
		</contour>
	</outline>
</glyph>
<glyph name="c" format="2">
  <advance width="640"/>
  <unicode hex="0063"/>
  <anchor x="332" y="0" name="bottom"/>
  <anchor x="336" y="576" name="top"/>
  <outline>
    <contour>
      <point x="332" y="-16" type="curve" smooth="yes"/>
      <point x="484" y="-20"/>
      <point x="554" y="30"/>
      <point x="576" y="192" type="curve"/>
      <point x="560" y="208" type="line"/>
      <point x="488" y="208" type="line"/>
      <point x="472" y="192" type="line"/>
      <point x="456" y="128"/>
      <point x="416" y="76"/>
      <point x="332" y="76" type="curve" smooth="yes"/>
      <point x="220" y="76"/>
      <point x="172" y="156"/>
      <point x="172" y="288" type="curve" smooth="yes"/>
      <point x="172" y="420"/>
      <point x="220" y="500"/>
      <point x="332" y="500" type="curve" smooth="yes"/>
      <point x="408" y="500"/>
      <point x="456" y="464"/>
      <point x="472" y="400" type="curve"/>
      <point x="488" y="384" type="line"/>
      <point x="560" y="384" type="line"/>
      <point x="576" y="400" type="line"/>
      <point x="554" y="564"/>
      <point x="474" y="592"/>
      <point x="332" y="592" type="curve" smooth="yes"/>
      <point x="156" y="592"/>
      <point x="64" y="464"/>
      <point x="64" y="288" type="curve" smooth="yes"/>
      <point x="64" y="104"/>
      <point x="160" y="-12"/>
    </contour>
  </outline>
</glyph>
<glyph name="d" format="2">
	<unicode hex="0064"/>
	<advance width="624"/>
	<outline>
		<contour>
			<point x="544" y="0" type="line"/>
			<point x="560" y="16" type="line"/>
			<point x="560" y="752" type="line"/>
			<point x="544" y="768" type="line"/>
			<point x="480" y="768" type="line"/>
			<point x="464" y="752" type="line"/>
			<point x="464" y="512" type="line"/>
			<point x="456" y="512" type="line"/>
			<point x="424" y="560"/>
			<point x="360" y="592"/>
			<point x="272" y="592" type="curve" smooth="yes"/>
			<point x="104" y="592"/>
			<point x="16" y="464"/>
			<point x="16" y="288" type="curve" smooth="yes"/>
			<point x="16" y="112"/>
			<point x="104" y="-16"/>
			<point x="272" y="-16" type="curve" smooth="yes"/>
			<point x="344" y="-16"/>
			<point x="424" y="24"/>
			<point x="456" y="72" type="curve"/>
			<point x="464" y="72" type="line"/>
			<point x="464" y="16" type="line"/>
			<point x="480" y="0" type="line"/>
		</contour>
		<contour>
			<point x="288" y="512" type="curve" smooth="yes"/>
			<point x="408" y="512"/>
			<point x="464" y="416"/>
			<point x="464" y="288" type="curve" smooth="yes"/>
			<point x="464" y="160"/>
			<point x="408" y="64"/>
			<point x="288" y="64" type="curve" smooth="yes"/>
			<point x="176" y="64"/>
			<point x="120" y="160"/>
			<point x="120" y="288" type="curve" smooth="yes"/>
			<point x="120" y="416"/>
			<point x="176" y="512"/>
		</contour>
	</outline>
</glyph>
<glyph name="e" format="2">
	<unicode hex="0065"/>
	<advance width="608"/>
	<outline>
		<contour>
			<point x="144" y="336" type="line"/>
			<point x="136" y="344" type="line"/>
			<point x="136" y="416"/>
			<point x="192" y="512"/>
			<point x="312" y="512" type="curve" smooth="yes"/>
			<point x="432" y="512"/>
			<point x="480" y="416"/>
			<point x="480" y="344" type="curve"/>
			<point x="472" y="336" type="line"/>
		</contour>
		<contour>
			<point x="312" y="-16" type="curve" smooth="yes"/>
			<point x="472" y="-16"/>
			<point x="560" y="72"/>
			<point x="560" y="168" type="curve"/>
			<point x="544" y="184" type="line"/>
			<point x="488" y="184" type="line"/>
			<point x="472" y="168" type="line"/>
			<point x="448" y="104"/>
			<point x="408" y="64"/>
			<point x="312" y="64" type="curve" smooth="yes"/>
			<point x="192" y="64"/>
			<point x="136" y="160"/>
			<point x="136" y="248" type="curve"/>
			<point x="144" y="256" type="line"/>
			<point x="560" y="256" type="line"/>
			<point x="576" y="272" type="line"/>
			<point x="576" y="304" type="line" smooth="yes"/>
			<point x="576" y="496"/>
			<point x="450" y="592"/>
			<point x="312" y="592" type="curve" smooth="yes"/>
			<point x="144" y="592"/>
			<point x="32" y="464"/>
			<point x="32" y="288" type="curve" smooth="yes"/>
			<point x="32" y="112"/>
			<point x="144" y="-16"/>
		</contour>
	</outline>
</glyph>
<glyph name="g" format="2">
  <advance width="684"/>
  <unicode hex="0067"/>
  <anchor x="308" y="-224" name="bottom"/>
  <anchor x="296" y="576" name="top"/>
  <outline>
    <contour>
      <point x="580" y="576" type="line"/>
      <point x="516" y="576" type="line"/>
      <point x="500" y="560" type="line"/>
      <point x="492" y="512" type="line"/>
      <point x="476" y="512" type="line"/>
      <point x="444" y="556"/>
      <point x="376" y="592"/>
      <point x="300" y="592" type="curve" smooth="yes"/>
      <point x="140" y="592"/>
      <point x="64" y="452"/>
      <point x="64" y="288" type="curve" smooth="yes"/>
      <point x="64" y="140"/>
      <point x="140" y="-16"/>
      <point x="300" y="-16" type="curve" smooth="yes"/>
      <point x="388" y="-16"/>
      <point x="444" y="20"/>
      <point x="476" y="64" type="curve"/>
      <point x="492" y="56" type="line"/>
      <point x="492" y="16" type="line" smooth="yes"/>
      <point x="492" y="-100"/>
      <point x="432" y="-152"/>
      <point x="332" y="-152" type="curve" smooth="yes"/>
      <point x="244" y="-152"/>
      <point x="204" y="-112"/>
      <point x="196" y="-84" type="curve"/>
      <point x="180" y="-68" type="line"/>
      <point x="116" y="-68" type="line"/>
      <point x="100" y="-84" type="line"/>
      <point x="100" y="-100" type="line"/>
      <point x="112" y="-172"/>
      <point x="180" y="-240"/>
      <point x="332" y="-240" type="curve" smooth="yes"/>
      <point x="528" y="-240"/>
      <point x="596" y="-148"/>
      <point x="596" y="64" type="curve" smooth="yes"/>
      <point x="596" y="560" type="line"/>
    </contour>
    <contour>
      <point x="332" y="80" type="curve" smooth="yes"/>
      <point x="232" y="80"/>
      <point x="172" y="168"/>
      <point x="172" y="288" type="curve" smooth="yes"/>
      <point x="172" y="424"/>
      <point x="232" y="496"/>
      <point x="332" y="496" type="curve" smooth="yes"/>
      <point x="420" y="496"/>
      <point x="492" y="424"/>
      <point x="492" y="288" type="curve" smooth="yes"/>
      <point x="492" y="152"/>
      <point x="420" y="80"/>
    </contour>
  </outline>
</glyph>
<glyph name="i" format="2">
	<unicode hex="0069"/>
	<advance width="224"/>
	<outline>
		<contour>
			<point x="80" y="640" type="line"/>
			<point x="144" y="640" type="line"/>
			<point x="160" y="656" type="line"/>
			<point x="160" y="752" type="line"/>
			<point x="144" y="768" type="line"/>
			<point x="80" y="768" type="line"/>
			<point x="64" y="752" type="line"/>
			<point x="64" y="656" type="line"/>
		</contour>
		<contour>
			<point x="80" y="0" type="line"/>
			<point x="144" y="0" type="line"/>
			<point x="160" y="16" type="line"/>
			<point x="160" y="560" type="line"/>
			<point x="144" y="576" type="line"/>
			<point x="80" y="576" type="line"/>
			<point x="64" y="560" type="line"/>
			<point x="64" y="16" type="line"/>
		</contour>
	</outline>
</glyph>
<glyph name="j" format="2">
  <advance width="240"/>
  <unicode hex="006A"/>
  <outline>
    <contour>
      <point x="-24" y="-200" type="line"/>
      <point x="20" y="-200" type="line" smooth="yes"/>
      <point x="100" y="-200"/>
      <point x="172" y="-156"/>
      <point x="172" y="-52" type="curve" smooth="yes"/>
      <point x="172" y="560" type="line"/>
      <point x="156" y="576" type="line"/>
      <point x="84" y="576" type="line"/>
      <point x="68" y="560" type="line"/>
      <point x="68" y="-52" type="line" smooth="yes"/>
      <point x="68" y="-88"/>
      <point x="56" y="-100"/>
      <point x="28" y="-100" type="curve" smooth="yes"/>
      <point x="-24" y="-100" type="line"/>
      <point x="-40" y="-116" type="line"/>
      <point x="-40" y="-184" type="line"/>
    </contour>
    <contour>
      <point x="80" y="684" type="line"/>
      <point x="160" y="684" type="line"/>
      <point x="176" y="700" type="line"/>
      <point x="176" y="784" type="line"/>
      <point x="160" y="800" type="line"/>
      <point x="80" y="800" type="line"/>
      <point x="64" y="784" type="line"/>
      <point x="64" y="700" type="line"/>
    </contour>
  </outline>
</glyph>
<glyph name="k" format="2">
	<unicode hex="006B"/>
	<advance width="568"/>
	<outline>
		<contour>
			<point x="104" y="0" type="line"/>
			<point x="176" y="0" type="line"/>
			<point x="192" y="16" type="line"/>
			<point x="192" y="216" type="line"/>
			<point x="264" y="284" type="line"/>
			<point x="280" y="284" type="line"/>
			<point x="464" y="12" type="line"/>
			<point x="480" y="0" type="line"/>
			<point x="528" y="0" type="line"/>
			<point x="544" y="16" type="line"/>
			<point x="544" y="64" type="line"/>
			<point x="360" y="340" type="line"/>
			<point x="360" y="360" type="line"/>
			<point x="544" y="536" type="line"/>
			<point x="544" y="560" type="line"/>
			<point x="528" y="576" type="line"/>
			<point x="460" y="576" type="line"/>
			<point x="442" y="560" type="line"/>
			<point x="208" y="348" type="line"/>
			<point x="192" y="348" type="line"/>
			<point x="192" y="784" type="line"/>
			<point x="176" y="800" type="line"/>
			<point x="104" y="800" type="line"/>
			<point x="88" y="784" type="line"/>
			<point x="88" y="16" type="line"/>
		</contour>
	</outline>
	<anchor name="bottom" x="276" y="0"/>
	<anchor name="top" x="276" y="800"/>
</glyph>
<glyph name="l" format="2">
  <advance width="224"/>
  <unicode hex="006C"/>
  <outline>
    <contour>
      <point x="80" y="0" type="line"/>
      <point x="144" y="0" type="line"/>
      <point x="160" y="16" type="line"/>
      <point x="160" y="752" type="line"/>
      <point x="144" y="768" type="line"/>
      <point x="80" y="768" type="line"/>
      <point x="64" y="752" type="line"/>
      <point x="64" y="16" type="line"/>
    </contour>
  </outline>
</glyph>
<glyph name="m" format="2">
  <advance width="960"/>
  <unicode hex="006D"/>
  <outline>
    <contour>
      <point x="104" y="0" type="line"/>
      <point x="176" y="0" type="line"/>
      <point x="192" y="16" type="line"/>
      <point x="192" y="352" type="line" smooth="yes"/>
      <point x="192" y="448"/>
      <point x="216" y="504"/>
      <point x="312" y="504" type="curve" smooth="yes"/>
      <point x="408" y="504"/>
      <point x="432" y="448"/>
      <point x="432" y="352" type="curve" smooth="yes"/>
      <point x="432" y="16" type="line"/>
      <point x="448" y="0" type="line"/>
      <point x="520" y="0" type="line"/>
      <point x="536" y="16" type="line"/>
      <point x="536" y="352" type="line" smooth="yes"/>
      <point x="536" y="448"/>
      <point x="560" y="504"/>
      <point x="656" y="504" type="curve" smooth="yes"/>
      <point x="752" y="504"/>
      <point x="776" y="448"/>
      <point x="776" y="352" type="curve" smooth="yes"/>
      <point x="776" y="16" type="line"/>
      <point x="792" y="0" type="line"/>
      <point x="864" y="0" type="line"/>
      <point x="880" y="16" type="line"/>
      <point x="880" y="352" type="line" smooth="yes"/>
      <point x="880" y="496"/>
      <point x="832" y="592"/>
      <point x="672" y="592" type="curve" smooth="yes"/>
      <point x="592" y="592"/>
      <point x="536" y="560"/>
      <point x="512" y="512" type="curve"/>
      <point x="496" y="512" type="line"/>
      <point x="480" y="560"/>
      <point x="424" y="592"/>
      <point x="344" y="592" type="curve" smooth="yes"/>
      <point x="264" y="592"/>
      <point x="220" y="552"/>
      <point x="204" y="512" type="curve"/>
      <point x="188" y="512" type="line"/>
      <point x="172" y="560" type="line"/>
      <point x="156" y="576" type="line"/>
      <point x="104" y="576" type="line"/>
      <point x="88" y="560" type="line"/>
      <point x="88" y="16" type="line"/>
    </contour>
  </outline>
</glyph>
<glyph name="n" format="2">
	<unicode hex="006E"/>
	<advance width="588"/>
	<outline>
		<contour>
			<point x="80" y="0" type="line"/>
			<point x="144" y="0" type="line"/>
			<point x="160" y="16" type="line"/>
			<point x="160" y="352" type="line" smooth="yes"/>
			<point x="160" y="448"/>
			<point x="200" y="512"/>
			<point x="296" y="512" type="curve" smooth="yes"/>
			<point x="392" y="512"/>
			<point x="432" y="448"/>
			<point x="432" y="352" type="curve" smooth="yes"/>
			<point x="432" y="16" type="line"/>
			<point x="448" y="0" type="line"/>
			<point x="512" y="0" type="line"/>
			<point x="528" y="16" type="line"/>
			<point x="528" y="384" type="line" smooth="yes"/>
			<point x="528" y="512"/>
			<point x="456" y="592"/>
			<point x="328" y="592" type="curve" smooth="yes"/>
			<point x="264" y="592"/>
			<point x="200" y="560"/>
			<point x="168" y="512" type="curve"/>
			<point x="160" y="512" type="line"/>
			<point x="160" y="560" type="line"/>
			<point x="144" y="576" type="line"/>
			<point x="80" y="576" type="line"/>
			<point x="64" y="560" type="line"/>
			<point x="64" y="16" type="line"/>
		</contour>
	</outline>
</glyph>
<glyph name="o" format="2">
  <advance width="624"/>
  <unicode hex="006F"/>
  <outline>
    <contour>
      <point x="312" y="-16" type="curve" smooth="yes"/>
      <point x="496" y="-16"/>
      <point x="592" y="112"/>
      <point x="592" y="288" type="curve" smooth="yes"/>
      <point x="592" y="464"/>
      <point x="496" y="592"/>
      <point x="312" y="592" type="curve" smooth="yes"/>
      <point x="128" y="592"/>
      <point x="32" y="464"/>
      <point x="32" y="288" type="curve" smooth="yes"/>
      <point x="32" y="112"/>
      <point x="128" y="-16"/>
    </contour>
    <contour>
      <point x="312" y="72" type="curve" smooth="yes"/>
      <point x="192" y="72"/>
      <point x="136" y="160"/>
      <point x="136" y="288" type="curve" smooth="yes"/>
      <point x="136" y="416"/>
      <point x="192" y="504"/>
      <point x="312" y="504" type="curve" smooth="yes"/>
      <point x="432" y="504"/>
      <point x="488" y="416"/>
      <point x="488" y="288" type="curve" smooth="yes"/>
      <point x="488" y="160"/>
      <point x="432" y="72"/>
    </contour>
  </outline>
</glyph>
<glyph name="p" format="2">
  <advance width="684"/>
  <unicode hex="0070"/>
  <outline>
    <contour>
      <point x="104" y="-200" type="line"/>
      <point x="176" y="-200" type="line"/>
      <point x="192" y="-184" type="line"/>
      <point x="192" y="56" type="line"/>
      <point x="208" y="64" type="line"/>
      <point x="240" y="20"/>
      <point x="296" y="-16"/>
      <point x="384" y="-16" type="curve" smooth="yes"/>
      <point x="544" y="-16"/>
      <point x="620" y="124"/>
      <point x="620" y="288" type="curve" smooth="yes"/>
      <point x="620" y="452"/>
      <point x="544" y="592"/>
      <point x="384" y="592" type="curve" smooth="yes"/>
      <point x="308" y="592"/>
      <point x="240" y="556"/>
      <point x="208" y="512" type="curve"/>
      <point x="192" y="512" type="line"/>
      <point x="184" y="560" type="line"/>
      <point x="168" y="576" type="line"/>
      <point x="104" y="576" type="line"/>
      <point x="88" y="560" type="line"/>
      <point x="88" y="-184" type="line"/>
    </contour>
    <contour>
      <point x="352" y="80" type="curve" smooth="yes"/>
      <point x="264" y="80"/>
      <point x="192" y="152"/>
      <point x="192" y="288" type="curve" smooth="yes"/>
      <point x="192" y="424"/>
      <point x="264" y="496"/>
      <point x="352" y="496" type="curve" smooth="yes"/>
      <point x="452" y="496"/>
      <point x="512" y="424"/>
      <point x="512" y="288" type="curve" smooth="yes"/>
      <point x="512" y="152"/>
      <point x="452" y="80"/>
    </contour>
  </outline>
</glyph>
<glyph name="q" format="2">
	<unicode hex="0071"/>
	<advance width="660"/>
	<outline>
		<contour>
			<point x="564" y="-200" type="line"/>
			<point x="580" y="-184" type="line"/>
			<point x="580" y="560" type="line"/>
			<point x="564" y="576" type="line"/>
			<point x="500" y="576" type="line"/>
			<point x="484" y="560" type="line"/>
			<point x="476" y="512" type="line"/>
			<point x="460" y="512" type="line"/>
			<point x="428" y="556"/>
			<point x="360" y="592"/>
			<point x="284" y="592" type="curve" smooth="yes"/>
			<point x="124" y="592"/>
			<point x="48" y="452"/>
			<point x="48" y="288" type="curve" smooth="yes"/>
			<point x="48" y="124"/>
			<point x="124" y="-16"/>
			<point x="284" y="-16" type="curve" smooth="yes"/>
			<point x="372" y="-16"/>
			<point x="428" y="20"/>
			<point x="460" y="64" type="curve"/>
			<point x="476" y="56" type="line"/>
			<point x="476" y="-184" type="line"/>
			<point x="492" y="-200" type="line"/>
		</contour>
		<contour>
			<point x="316" y="80" type="curve" smooth="yes"/>
			<point x="216" y="80"/>
			<point x="156" y="152"/>
			<point x="156" y="288" type="curve" smooth="yes"/>
			<point x="156" y="424"/>
			<point x="216" y="496"/>
			<point x="316" y="496" type="curve" smooth="yes"/>
			<point x="404" y="496"/>
			<point x="476" y="424"/>
			<point x="476" y="288" type="curve" smooth="yes"/>
			<point x="476" y="152"/>
			<point x="404" y="80"/>
		</contour>
	</outline>
</glyph>
<glyph name="r" format="2">
	<unicode hex="0072"/>
	<advance width="328"/>
	<outline>
		<contour>
			<point x="80" y="0" type="line"/>
			<point x="144" y="0" type="line"/>
			<point x="160" y="16" type="line"/>
			<point x="160" y="328" type="line" smooth="yes"/>
			<point x="160" y="456"/>
			<point x="192" y="488"/>
			<point x="288" y="488" type="curve" smooth="yes"/>
			<point x="320" y="488" type="line"/>
			<point x="336" y="504" type="line"/>
			<point x="336" y="560" type="line"/>
			<point x="320" y="576" type="line"/>
			<point x="288" y="576" type="line" smooth="yes"/>
			<point x="248" y="576"/>
			<point x="200" y="560"/>
			<point x="168" y="512" type="curve"/>
			<point x="160" y="512" type="line"/>
			<point x="160" y="560" type="line"/>
			<point x="144" y="576" type="line"/>
			<point x="80" y="576" type="line"/>
			<point x="64" y="560" type="line"/>
			<point x="64" y="16" type="line"/>
		</contour>
	</outline>
</glyph>
<glyph name="s" format="2">
	<unicode hex="0073"/>
	<advance width="536"/>
	<outline>
		<contour>
			<point x="264" y="-16" type="curve" smooth="yes"/>
			<point x="420" y="-16"/>
			<point x="504" y="52"/>
			<point x="504" y="160" type="curve" smooth="yes"/>
			<point x="504" y="252"/>
			<point x="432" y="308"/>
			<point x="320" y="332" type="curve" smooth="yes"/>
			<point x="288" y="339" type="line" smooth="yes"/>
			<point x="194" y="360"/>
			<point x="136" y="374"/>
			<point x="136" y="424" type="curve" smooth="yes"/>
			<point x="136" y="472"/>
			<point x="168" y="504"/>
			<point x="248" y="504" type="curve" smooth="yes"/>
			<point x="332" y="504"/>
			<point x="380" y="472"/>
			<point x="380" y="420" type="curve"/>
			<point x="396" y="404" type="line"/>
			<point x="464" y="404" type="line"/>
			<point x="480" y="420" type="line"/>
			<point x="478" y="442" type="line"/>
			<point x="466" y="546"/>
			<point x="372" y="592"/>
			<point x="248" y="592" type="curve" smooth="yes"/>
			<point x="92" y="592"/>
			<point x="32" y="504"/>
			<point x="32" y="424" type="curve" smooth="yes"/>
			<point x="32" y="328"/>
			<point x="108" y="288"/>
			<point x="230" y="258" type="curve" smooth="yes"/>
			<point x="262" y="250" type="line" smooth="yes"/>
			<point x="352" y="228"/>
			<point x="400" y="208"/>
			<point x="400" y="160" type="curve" smooth="yes"/>
			<point x="400" y="116"/>
			<point x="360" y="72"/>
			<point x="264" y="72" type="curve" smooth="yes"/>
			<point x="200" y="72"/>
			<point x="132" y="92"/>
			<point x="132" y="172" type="curve"/>
			<point x="116" y="188" type="line"/>
			<point x="48" y="188" type="line"/>
			<point x="32" y="172" type="line"/>
			<point x="32" y="152" type="line"/>
			<point x="40" y="38"/>
			<point x="124" y="-16"/>
		</contour>
	</outline>
	<anchor name="bottom" x="300" y="0"/>
	<anchor name="top" x="288" y="576"/>
</glyph>
<glyph name="t" format="2">
	<unicode hex="0074"/>
	<advance width="328"/>
	<outline>
		<contour>
			<point x="240" y="0" type="curve" smooth="yes"/>
			<point x="296" y="0" type="line"/>
			<point x="312" y="16" type="line"/>
			<point x="312" y="64" type="line"/>
			<point x="296" y="80" type="line"/>
			<point x="248" y="80" type="line" smooth="yes"/>
			<point x="216" y="80"/>
			<point x="200" y="96"/>
			<point x="200" y="128" type="curve" smooth="yes"/>
			<point x="200" y="488" type="line"/>
			<point x="208" y="496" type="line"/>
			<point x="296" y="496" type="line"/>
			<point x="312" y="512" type="line"/>
			<point x="312" y="560" type="line"/>
			<point x="296" y="576" type="line"/>
			<point x="208" y="576" type="line"/>
			<point x="200" y="584" type="line"/>
			<point x="200" y="720" type="line"/>
			<point x="184" y="736" type="line"/>
			<point x="120" y="736" type="line"/>
			<point x="104" y="720" type="line"/>
			<point x="104" y="584" type="line"/>
			<point x="96" y="576" type="line"/>
			<point x="24" y="576" type="line"/>
			<point x="8" y="560" type="line"/>
			<point x="8" y="512" type="line"/>
			<point x="24" y="496" type="line"/>
			<point x="96" y="496" type="line"/>
			<point x="104" y="488" type="line"/>
			<point x="104" y="120" type="line" smooth="yes"/>
			<point x="104" y="24"/>
			<point x="144" y="0"/>
		</contour>
	</outline>
</glyph>
<glyph name="u" format="2">
	<unicode hex="0075"/>
	<advance width="588"/>
	<outline>
		<contour>
			<point x="260" y="-16" type="curve" smooth="yes"/>
			<point x="324" y="-16"/>
			<point x="388" y="16"/>
			<point x="420" y="64" type="curve"/>
			<point x="428" y="64" type="line"/>
			<point x="428" y="16" type="line"/>
			<point x="444" y="0" type="line"/>
			<point x="508" y="0" type="line"/>
			<point x="524" y="16" type="line"/>
			<point x="524" y="560" type="line"/>
			<point x="508" y="576" type="line"/>
			<point x="444" y="576" type="line"/>
			<point x="428" y="560" type="line"/>
			<point x="428" y="232" type="line" smooth="yes"/>
			<point x="428" y="136"/>
			<point x="388" y="72"/>
			<point x="292" y="72" type="curve" smooth="yes"/>
			<point x="196" y="72"/>
			<point x="156" y="136"/>
			<point x="156" y="232" type="curve" smooth="yes"/>
			<point x="156" y="560" type="line"/>
			<point x="140" y="576" type="line"/>
			<point x="76" y="576" type="line"/>
			<point x="60" y="560" type="line"/>
			<point x="60" y="200" type="line" smooth="yes"/>
			<point x="60" y="72"/>
			<point x="132" y="-16"/>
		</contour>
	</outline>
</glyph>
<glyph name="v" format="2">
  <advance width="592"/>
  <unicode hex="0076"/>
  <outline>
    <contour>
      <point x="244" y="0" type="line"/>
      <point x="348" y="0" type="line"/>
      <point x="364" y="16" type="line"/>
      <point x="544" y="504" type="line"/>
      <point x="544" y="560" type="line"/>
      <point x="528" y="576" type="line"/>
      <point x="472" y="576" type="line"/>
      <point x="456" y="560" type="line"/>
      <point x="304" y="120" type="line"/>
      <point x="288" y="120" type="line"/>
      <point x="136" y="560" type="line"/>
      <point x="120" y="576" type="line"/>
      <point x="64" y="576" type="line"/>
      <point x="48" y="560" type="line"/>
      <point x="48" y="504" type="line"/>
      <point x="228" y="16" type="line"/>
    </contour>
  </outline>
</glyph>
<glyph name="w" format="2">
  <advance width="824"/>
  <unicode hex="0077"/>
  <anchor x="412" y="0" name="bottom"/>
  <anchor x="412" y="576" name="top"/>
  <outline>
    <contour>
      <point x="156" y="0" type="line"/>
      <point x="280" y="0" type="line"/>
      <point x="296" y="16" type="line"/>
      <point x="404" y="468" type="line"/>
      <point x="420" y="468" type="line"/>
      <point x="528" y="16" type="line"/>
      <point x="544" y="0" type="line"/>
      <point x="668" y="0" type="line"/>
      <point x="684" y="16" type="line"/>
      <point x="792" y="500" type="line"/>
      <point x="792" y="560" type="line"/>
      <point x="776" y="576" type="line"/>
      <point x="720" y="576" type="line"/>
      <point x="704" y="560" type="line"/>
      <point x="608" y="108" type="line"/>
      <point x="592" y="108" type="line"/>
      <point x="484" y="560" type="line"/>
      <point x="468" y="576" type="line"/>
      <point x="356" y="576" type="line"/>
      <point x="340" y="560" type="line"/>
      <point x="228" y="108" type="line"/>
      <point x="216" y="108" type="line"/>
      <point x="120" y="560" type="line"/>
      <point x="104" y="576" type="line"/>
      <point x="48" y="576" type="line"/>
      <point x="32" y="560" type="line"/>
      <point x="32" y="500" type="line"/>
      <point x="140" y="16" type="line"/>
    </contour>
  </outline>
</glyph>
<glyph name="x" format="2">
  <advance width="548"/>
  <unicode hex="0078"/>
  <outline>
    <contour>
      <point x="48" y="0" type="line"/>
      <point x="96" y="0" type="line"/>
      <point x="112" y="16" type="line"/>
      <point x="264" y="232" type="line"/>
      <point x="276" y="232" type="line"/>
      <point x="432" y="16" type="line"/>
      <point x="448" y="0" type="line"/>
      <point x="500" y="0" type="line"/>
      <point x="516" y="16" type="line"/>
      <point x="516" y="68" type="line"/>
      <point x="340" y="304" type="line"/>
      <point x="340" y="320" type="line"/>
      <point x="480" y="508" type="line"/>
      <point x="480" y="560" type="line"/>
      <point x="464" y="576" type="line"/>
      <point x="416" y="576" type="line"/>
      <point x="400" y="560" type="line"/>
      <point x="276" y="384" type="line"/>
      <point x="264" y="384" type="line"/>
      <point x="140" y="560" type="line"/>
      <point x="124" y="576" type="line"/>
      <point x="72" y="576" type="line"/>
      <point x="56" y="560" type="line"/>
      <point x="56" y="508" type="line"/>
      <point x="200" y="308" type="line"/>
      <point x="200" y="292" type="line"/>
      <point x="32" y="68" type="line"/>
      <point x="32" y="16" type="line"/>
    </contour>
  </outline>
</glyph>
<glyph name="z" format="2">
  <advance width="532"/>
  <unicode hex="007A"/>
  <anchor x="276" y="0" name="bottom"/>
  <anchor x="276" y="260" name="center"/>
  <anchor x="276" y="576" name="top"/>
  <outline>
    <contour>
      <point x="64" y="0" type="line"/>
      <point x="468" y="0" type="line"/>
      <point x="484" y="16" type="line"/>
      <point x="484" y="72" type="line"/>
      <point x="468" y="88" type="line"/>
      <point x="176" y="88" type="line"/>
      <point x="176" y="104" type="line"/>
      <point x="456" y="452" type="line"/>
      <point x="472" y="480" type="line"/>
      <point x="472" y="560" type="line"/>
      <point x="456" y="576" type="line"/>
      <point x="72" y="576" type="line"/>
      <point x="56" y="560" type="line"/>
      <point x="56" y="504" type="line"/>
      <point x="72" y="488" type="line"/>
      <point x="360" y="488" type="line"/>
      <point x="360" y="476" type="line"/>
      <point x="56" y="112" type="line"/>
      <point x="48" y="88" type="line"/>
      <point x="48" y="16" type="line"/>
    </contour>
  </outline>
</glyph>
<glyph name="beh-ar.init" format="2">
	<advance width="600"/>
	<outline>
		<contour>
			<point x="318" y="-214" type="line"/>
			<point x="382" y="-214" type="line"/>
			<point x="398" y="-198" type="line"/>
			<point x="398" y="-102" type="line"/>
			<point x="382" y="-86" type="line"/>
			<point x="318" y="-86" type="line"/>
			<point x="302" y="-102" type="line"/>
			<point x="302" y="-198" type="line"/>
		</contour>
		<contour>
			<point x="-16" y="56" type="line"/>
			<point x="-16" y="16" type="line"/>
			<point x="0" y="0" type="line"/>
			<point x="240" y="0" type="line" smooth="yes"/>
			<point x="368" y="0"/>
			<point x="440" y="104"/>
			<point x="440" y="224" type="curve" smooth="yes"/>
			<point x="440" y="560" type="line"/>
			<point x="424" y="576" type="line"/>
			<point x="360" y="576" type="line"/>
			<point x="344" y="560" type="line"/>
			<point x="344" y="241" type="line" smooth="yes"/>
			<point x="344" y="128"/>
			<point x="287" y="72"/>
			<point x="192" y="72" type="curve" smooth="yes"/>
			<point x="0" y="72" type="line"/>
		</contour>
		<component base="behDotless-ar.init"/>
		<component base="dotbelow-ar"/>
	</outline>
</glyph>
<glyph name="heh-ar.medi" format="2">
	<advance width="544"/>
	<outline>
		<contour>
			<point x="268" y="-264" type="curve" smooth="yes"/>
			<point x="140" y="-264"/>
			<point x="72" y="-184"/>
			<point x="72" y="-64" type="curve" smooth="yes"/>
			<point x="72" y="-8" type="line"/>
			<point x="64" y="0" type="line"/>
			<point x="0" y="0" type="line"/>
			<point x="-16" y="16" type="line"/>
			<point x="-16" y="92" type="line"/>
			<point x="0" y="108" type="line"/>
			<point x="64" y="108" type="line"/>
			<point x="72" y="116" type="line"/>
			<point x="72" y="228" type="line" smooth="yes"/>
			<point x="72" y="348"/>
			<point x="140" y="428"/>
			<point x="268" y="428" type="curve" smooth="yes"/>
			<point x="396" y="428"/>
			<point x="472" y="348"/>
			<point x="472" y="220" type="curve" smooth="yes"/>
			<point x="472" y="172"/>
			<point x="444" y="120"/>
			<point x="432" y="100" type="curve"/>
			<point x="440" y="92" type="line"/>
			<point x="460" y="108"/>
			<point x="480" y="108"/>
			<point x="508" y="108" type="curve" smooth="yes"/>
			<point x="544" y="108" type="line"/>
			<point x="544" y="0" type="line"/>
			<point x="528" y="0" type="line" smooth="yes"/>
			<point x="496" y="0"/>
			<point x="472" y="-16"/>
			<point x="472" y="-64" type="curve" smooth="yes"/>
			<point x="472" y="-180"/>
			<point x="396" y="-264"/>
		</contour>
		<contour>
			<point x="184" y="108" type="line"/>
			<point x="268" y="108" type="line" smooth="yes"/>
			<point x="332" y="108"/>
			<point x="368" y="144"/>
			<point x="368" y="220" type="curve" smooth="yes"/>
			<point x="368" y="284"/>
			<point x="332" y="320"/>
			<point x="268" y="320" type="curve" smooth="yes"/>
			<point x="204" y="320"/>
			<point x="176" y="284"/>
			<point x="176" y="220" type="curve" smooth="yes"/>
			<point x="176" y="116" type="line"/>
		</contour>
		<contour>
			<point x="268" y="-156" type="curve" smooth="yes"/>
			<point x="332" y="-156"/>
			<point x="368" y="-120"/>
			<point x="368" y="-56" type="curve" smooth="yes"/>
			<point x="368" y="0"/>
			<point x="368" y="16"/>
			<point x="384" y="40" type="curve"/>
			<point x="376" y="48" type="line"/>
			<point x="340" y="16"/>
			<point x="304" y="0"/>
			<point x="216" y="0" type="curve" smooth="yes"/>
			<point x="184" y="0" type="line"/>
			<point x="176" y="-8" type="line"/>
			<point x="176" y="-56" type="line" smooth="yes"/>
			<point x="176" y="-120"/>
			<point x="204" y="-156"/>
		</contour>
	</outline>
</glyph>
<glyph name="lam-ar.fina" format="2">
	<advance width="512"/>
	<outline>
		<contour>
			<point x="528" y="16" type="line"/>
			<point x="528" y="64" type="line"/>
			<point x="512" y="80" type="line"/>
			<point x="304" y="80" type="line" smooth="yes"/>
			<point x="208" y="80"/>
			<point x="176" y="136"/>
			<point x="176" y="256" type="curve" smooth="yes"/>
			<point x="176" y="752" type="line"/>
			<point x="160" y="768" type="line"/>
			<point x="96" y="768" type="line"/>
			<point x="80" y="752" type="line"/>
			<point x="80" y="266" type="line" smooth="yes"/>
			<point x="80" y="80"/>
			<point x="136" y="0"/>
			<point x="288" y="0" type="curve" smooth="yes"/>
			<point x="512" y="0" type="line"/>
		</contour>
	</outline>
</glyph>
<glyph name="threedotsupabove-ar" format="2">
	<advance width="300"/>
	<outline>
		<contour>
			<point x="264" y="608" type="curve" smooth="yes"/>
			<point x="312" y="608"/>
			<point x="348" y="648"/>
			<point x="348" y="692" type="curve" smooth="yes"/>
			<point x="348" y="740"/>
			<point x="312" y="776"/>
			<point x="264" y="776" type="curve" smooth="yes"/>
			<point x="220" y="776"/>
			<point x="180" y="740"/>
			<point x="180" y="692" type="curve" smooth="yes"/>
			<point x="180" y="648"/>
			<point x="220" y="608"/>
		</contour>
		<contour>
			<point x="40" y="608" type="curve" smooth="yes"/>
			<point x="88" y="608"/>
			<point x="124" y="648"/>
			<point x="124" y="692" type="curve" smooth="yes"/>
			<point x="124" y="740"/>
			<point x="88" y="776"/>
			<point x="40" y="776" type="curve" smooth="yes"/>
			<point x="-4" y="776"/>
			<point x="-44" y="740"/>
			<point x="-44" y="692" type="curve" smooth="yes"/>
			<point x="-44" y="648"/>
			<point x="-4" y="608"/>
		</contour>
		<contour>
			<point x="152" y="796" type="curve" smooth="yes"/>
			<point x="200" y="796"/>
			<point x="236" y="836"/>
			<point x="236" y="880" type="curve" smooth="yes"/>
			<point x="236" y="928"/>
			<point x="200" y="964"/>
			<point x="152" y="964" type="curve" smooth="yes"/>
			<point x="108" y="964"/>
			<point x="68" y="928"/>
			<point x="68" y="880" type="curve" smooth="yes"/>
			<point x="68" y="836"/>
			<point x="108" y="796"/>
		</contour>
	</outline>
</glyph>
